<?xml version="1.0" encoding="utf-8"?>
<!-- Generator: Adobe Illustrator 26.5.0, SVG Export Plug-In . SVG Version: 6.00 Build 0)  -->
<svg version="1.1" id="Layer_1" xmlns="http://www.w3.org/2000/svg" xmlns:xlink="http://www.w3.org/1999/xlink" x="0px" y="0px"
	 viewBox="0 0 228.92 119.48" style="enable-background:new 0 0 228.92 119.48;" xml:space="preserve">
<style type="text/css">
	.st0{fill:#003764;}
	.st1{fill:#5EB3E4;}
	.st2{fill:url(#SVGID_1_);}
</style>
<g>
	<g>
		<path class="st0" d="M43.79,90.57h-3.44v-1.21h8.24v1.21h-3.45v9.66h-1.35V90.57z"/>
		<path class="st0" d="M54.72,95.91h-2.17v4.32H51.2V89.37h4.37c1.99,0,3.4,1.27,3.4,3.27c0,1.95-1.34,3.03-2.82,3.16l2.93,4.43
			h-1.6L54.72,95.91z M55.4,90.57h-2.85v4.15h2.85c1.29,0,2.17-0.86,2.17-2.09C57.57,91.42,56.69,90.57,55.4,90.57z"/>
		<path class="st0" d="M68.76,97.82h-5.51l-0.96,2.41h-1.5l4.37-10.87h1.68l4.38,10.87h-1.5L68.76,97.82z M63.65,96.62h4.71
			l-2.35-6.04L63.65,96.62z"/>
		<path class="st0" d="M74.81,91.47v8.76h-1.35V89.37h1.38l6.26,8.58v-8.58h1.35v10.87h-1.3L74.81,91.47z"/>
		<path class="st0" d="M85.95,97.67c0.72,0.8,1.89,1.55,3.42,1.55c1.94,0,2.56-1.04,2.56-1.87c0-1.3-1.32-1.66-2.75-2.05
			c-1.74-0.46-3.68-0.94-3.68-3.08c0-1.79,1.6-3.01,3.73-3.01c1.66,0,2.95,0.55,3.86,1.51l-0.81,0.99c-0.81-0.9-1.95-1.3-3.14-1.3
			c-1.3,0-2.23,0.7-2.23,1.73c0,1.09,1.25,1.42,2.64,1.79c1.78,0.47,3.8,1.03,3.8,3.31c0,1.58-1.08,3.19-4.01,3.19
			c-1.89,0-3.27-0.72-4.17-1.73L85.95,97.67z"/>
		<path class="st0" d="M96.17,89.37h4.37c2.18,0,3.4,1.5,3.4,3.27c0,1.78-1.25,3.27-3.4,3.27h-3.01v4.32h-1.35V89.37z M100.37,90.57
			h-2.85v4.14h2.85c1.29,0,2.17-0.85,2.17-2.07C102.54,91.42,101.66,90.57,100.37,90.57z"/>
		<path class="st0" d="M111.5,89.19c3.21,0,5.39,2.41,5.39,5.62s-2.18,5.62-5.39,5.62c-3.23,0-5.39-2.41-5.39-5.62
			S108.27,89.19,111.5,89.19z M111.5,90.39c-2.44,0-3.99,1.87-3.99,4.41c0,2.52,1.55,4.41,3.99,4.41c2.43,0,3.99-1.89,3.99-4.41
			C115.49,92.27,113.93,90.39,111.5,90.39z"/>
		<path class="st0" d="M123.34,95.91h-2.17v4.32h-1.35V89.37h4.37c1.99,0,3.4,1.27,3.4,3.27c0,1.95-1.34,3.03-2.82,3.16l2.93,4.43
			h-1.6L123.34,95.91z M124.03,90.57h-2.85v4.15h2.85c1.29,0,2.17-0.86,2.17-2.09C126.2,91.42,125.32,90.57,124.03,90.57z"/>
		<path class="st0" d="M133.07,90.57h-3.44v-1.21h8.24v1.21h-3.45v9.66h-1.35V90.57z"/>
		<path class="st0" d="M146.24,97.82h-5.51l-0.96,2.41h-1.5l4.37-10.87h1.68l4.38,10.87h-1.5L146.24,97.82z M141.12,96.62h4.71
			l-2.35-6.04L141.12,96.62z"/>
		<path class="st0" d="M152.53,90.57h-3.44v-1.21h8.24v1.21h-3.45v9.66h-1.35V90.57z"/>
		<path class="st0" d="M159.94,89.37h1.35v10.87h-1.35V89.37z"/>
		<path class="st0" d="M169.6,89.19c3.21,0,5.39,2.41,5.39,5.62s-2.18,5.62-5.39,5.62c-3.23,0-5.39-2.41-5.39-5.62
			S166.37,89.19,169.6,89.19z M169.6,90.39c-2.44,0-3.99,1.87-3.99,4.41c0,2.52,1.55,4.41,3.99,4.41c2.43,0,3.99-1.89,3.99-4.41
			C173.59,92.27,172.03,90.39,169.6,90.39z"/>
		<path class="st0" d="M179.28,91.47v8.76h-1.35V89.37h1.38l6.26,8.58v-8.58h1.35v10.87h-1.3L179.28,91.47z"/>
		<path class="st0" d="M79.44,111.1c0-3.34,2.46-5.62,5.54-5.62c1.97,0,3.31,0.93,4.17,2.15L88,108.27
			c-0.62-0.91-1.74-1.58-3.03-1.58c-2.33,0-4.14,1.82-4.14,4.41c0,2.57,1.81,4.41,4.14,4.41c1.29,0,2.41-0.65,3.03-1.58l1.16,0.64
			c-0.91,1.24-2.22,2.15-4.19,2.15C81.9,116.72,79.44,114.44,79.44,111.1z"/>
		<path class="st0" d="M98.5,114.11h-5.51l-0.96,2.41h-1.5l4.37-10.87h1.68l4.38,10.87h-1.5L98.5,114.11z M93.38,112.91h4.71
			l-2.35-6.04L93.38,112.91z"/>
		<path class="st0" d="M103.19,105.66h4.84c1.89,0,3.05,1.14,3.05,2.77c0,1.37-0.91,2.28-1.91,2.49c1.16,0.18,2.12,1.37,2.12,2.67
			c0,1.74-1.16,2.93-3.14,2.93h-4.95V105.66z M107.8,110.37c1.22,0,1.87-0.75,1.87-1.74c0-0.98-0.65-1.76-1.87-1.76h-3.26v3.5H107.8
			z M107.87,115.32c1.27,0,2.02-0.72,2.02-1.87c0-0.99-0.68-1.87-2.02-1.87h-3.32v3.75H107.87z"/>
		<path class="st0" d="M114.25,105.66h1.35v10.87h-1.35V105.66z"/>
		<path class="st0" d="M120.31,107.76v8.76h-1.35v-10.87h1.38l6.26,8.58v-8.58h1.35v10.87h-1.3L120.31,107.76z"/>
		<path class="st0" d="M131.31,105.66h7.12v1.21h-5.77v3.5h5.65v1.21h-5.65v3.75h5.77v1.21h-7.12V105.66z"/>
		<path class="st0" d="M144.09,106.86h-3.44v-1.21h8.24v1.21h-3.45v9.66h-1.35V106.86z"/>
	</g>
	<g>
		<g>
			<path class="st0" d="M30.01,6.88h-9.47V4.62h21.46v2.26h-9.47V33.6h-2.52V6.88z"/>
			<path class="st0" d="M46.51,4.62h18.38v2.26h-15.9v10.73h15.6v2.26h-15.6v11.47h15.9v2.26H46.51V4.62z"/>
			<path class="st0" d="M89.6,26.47H74.17l-2.91,7.13h-2.78L80.34,4.62h3.08L95.29,33.6h-2.78L89.6,26.47z M74.96,24.21h13.86
				L81.86,7.05L74.96,24.21z"/>
			<path class="st0" d="M124,7.88L113.45,33.6h-0.96l-10.6-25.72V33.6h-2.48V4.62h3.69l9.86,24.03l9.82-24.03h3.74V33.6H124V7.88z"
				/>
			<path class="st0" d="M11.61,54.59l-2.26,2.69v8.91H3.18V37.2h6.17v12.95L19.61,37.2h7.6L15.7,50.81l12.3,15.38h-7.6L11.61,54.59z
				"/>
			<path class="st0" d="M30.44,37.2h20.51v5.3H36.61v6.3h14.03v5.3H36.61v6.73h14.34v5.34H30.44V37.2z"/>
			<path class="st0" d="M62.11,46.72v19.47h-6.17V37.2h6.34l13.43,18.77V37.2h6.17v28.98h-5.95L62.11,46.72z"/>
			<path class="st0" d="M93.33,42.64h-8.47V37.2h23.12v5.43h-8.43v23.55h-6.21V42.64z"/>
			<path class="st0" d="M110.93,37.2h6.26v17.21c0,4.04,2.22,6.82,6.73,6.82c4.43,0,6.65-2.78,6.65-6.82V37.2h6.26v17.38
				c0,7.21-4.13,12.12-12.9,12.12c-8.86,0-12.99-4.95-12.99-12.08V37.2z"/>
			<path class="st0" d="M140.67,51.72c0-8.91,6.74-14.99,15.21-14.99c6.6,0,10.3,3.48,12.34,7.08l-5.3,2.61
				c-1.22-2.35-3.82-4.21-7.04-4.21c-5.04,0-8.86,4.04-8.86,9.52s3.82,9.52,8.86,9.52c3.22,0,5.82-1.82,7.04-4.21l5.3,2.56
				c-2.09,3.61-5.74,7.13-12.34,7.13C147.41,66.71,140.67,60.63,140.67,51.72z"/>
			<path class="st0" d="M179.99,54.59l-2.26,2.69v8.91h-6.17V37.2h6.17v12.95l10.25-12.95h7.6l-11.52,13.6l12.3,15.38h-7.6
				L179.99,54.59z"/>
			<path class="st0" d="M208.14,54.32L196.97,37.2h7.04l7.21,11.65l7.13-11.65h7.04l-11.08,17.12v11.86h-6.17V54.32z"/>
		</g>
		<g>
			<polygon class="st1" points="204.99,22.04 204.53,22.2 204.33,21.95 204.26,22.25 204.01,21.98 203.46,21.9 203.44,21.79 
				203.51,21.77 203.55,21.52 203.3,21.49 203.08,20.98 202.89,21.17 202.57,20.82 202.05,20.68 201.76,19.84 201.85,19.68 
				201.64,19.41 201.05,19.11 200.89,18.43 200.75,18.19 200.16,17.89 200.23,17.67 200.34,17.54 200.39,17.3 199.93,16.86 
				199.32,15.83 198.82,15.43 198.82,15.18 199.11,15.1 199.18,14.91 199.09,14.42 199.34,14.34 199.48,14.23 199.43,13.83 
				199.5,13.67 199.27,13.02 199.36,12.53 199.11,11.85 198.61,11.53 198.36,11.12 197.95,10.98 197.38,10.93 197.16,10.77 
				196.91,10.47 196.86,9.9 196.68,9.55 196.72,9.17 196.59,8.9 196.29,8.87 195.81,9.14 195.31,9.2 194.99,9.52 194.54,9.77 
				194.24,10.25 193.88,10.36 193.31,10.2 193.06,10.36 192.9,10.5 192.74,10.5 192.6,10.39 192.53,10.12 192.15,9.87 191.4,9.77 
				190.96,9.47 190.71,9.41 189.87,9.6 189.73,9.77 189.64,10.06 189.53,10.2 189.32,10.23 189.01,10.06 188.46,9.9 188.28,9.44 
				187.84,9.25 187.66,8.87 187.16,8.74 186.71,8.52 185.86,8.68 185.52,8.65 184.73,8.41 184.25,8.14 184.18,7.46 183.95,6.98 
				183.68,6.68 183.47,5.92 183.16,5.68 182.75,5.68 182.49,5.57 182.43,5.16 182.24,4.86 181.81,4.89 181.61,5.05 180.88,5.3 
				180.61,5.27 180.2,5.11 179.51,4.51 179.08,4.92 178.88,4.94 178.72,4.94 178.19,5.38 178.15,5.51 178.28,5.73 178.58,6.03 
				178.67,6.27 178.56,6.57 178.28,6.87 178.28,7.08 178.42,7.17 178.94,7.22 179.08,7.35 179.1,7.54 178.76,7.9 178.81,8.36 
				177.37,8.49 176.92,8.65 176.51,8.82 176.03,9.22 175.67,9.41 175.26,9.41 174.64,8.87 174.05,8.95 173.27,8.95 173.02,9.09 
				172.96,9.41 173.23,10.63 173.3,10.88 173.16,11.15 172.84,11.36 172.45,11.88 171.5,12.15 171.2,12.83 171.11,13.34 
				170.86,13.75 170.25,14.07 169.91,13.94 169.7,13.91 169.4,14.02 169.29,14.42 168.74,15.07 168.72,16.32 168.56,16.67 
				168.31,16.92 167.86,17.02 167.63,17.11 167.45,17.4 166.97,16.92 166.17,16.84 165.6,16.59 165.37,16.4 165.24,16.19 
				165.19,15.4 164.78,15.1 164.58,14.91 164.35,14.91 164.35,15.21 164.76,15.35 164.83,15.45 164.76,15.56 164.3,15.7 
				164.17,15.86 163.76,15.62 163.64,15.62 163.55,15.81 163.85,16.08 163.85,16.21 163.71,16.4 163.28,16.48 163.14,16.54 
				163.05,16.84 163.03,17.19 163.17,17.67 163.1,17.84 162.94,17.89 162.57,17.86 162.42,17.92 162.26,18.6 161.98,18.73 
				161.8,18.7 161.75,18.57 161.85,18.11 161.75,18 161.57,18 161.21,18.19 160.98,18.16 160.53,17.27 160.32,17.13 159.98,17.19 
				159.64,17.54 159.34,17.73 158.82,17.81 158.59,17.86 158.39,18.05 158.04,19.16 157.73,19.41 157.5,19.35 157.25,18.95 
				157.09,18.81 156.63,18.7 156.2,18.46 155.86,18.22 155.13,17.76 154.54,17.73 154.06,17.97 153.15,17.35 152.94,17.89 
				153.24,18.24 153.24,18.51 153.1,18.76 152.72,18.92 152.4,18.84 152.44,18.16 152.17,18.14 152.01,18.19 151.76,18.16 
				151.12,18.38 150.8,18.24 150.42,17.86 150.21,17.92 150.1,18.08 150.08,18.41 150.33,18.81 150.24,19.14 150.05,19.25 
				149.87,19.49 149.39,19.22 149.16,19.16 148.82,19.95 148.28,20.33 148.03,20.76 148.05,21.12 148.25,21.6 148.85,22.42 
				148.69,22.79 146.62,23.15 146.18,23.53 145.64,23.39 145.18,23.61 144.79,24.74 144.88,25.18 145.34,25.75 145.61,26.29 
				145.34,26.91 145.11,27.21 144.98,27.26 144.73,27.29 144.34,27.21 143.84,26.8 143.15,26.53 142.68,26.45 142.61,26.34 
				141.54,25.77 140.9,25.61 140.35,25.58 139.69,25.96 139.22,26.78 138.94,26.99 138.72,27.29 138.67,27.72 138.9,28.02 
				139.08,28.13 139.31,28.24 139.31,28.51 139.08,29.46 138.76,29.73 138.69,29.86 138.76,30.13 139.12,30.27 139.12,30.54 
				138.9,30.65 138.65,30.62 138.46,31 138.46,31.14 138.74,31.6 138.65,31.81 138.44,32.06 138.35,32.6 138.05,32.74 137.67,32.65 
				137.3,32.14 137.12,32.09 136.94,32.11 136.85,32.22 136.44,33.36 136.46,33.47 137.1,33.47 141.86,33.49 141.88,33.49 
				142.04,33.49 144.77,33.49 144.93,33.49 149.1,33.52 149.16,33.06 149.12,32.57 148.85,31.52 150.69,31.62 150.85,31.92 
				152.33,31.9 152.81,31.9 155.52,31.84 157.68,31.81 158.09,31.84 160.82,31.81 163.21,31.79 164.1,31.84 166.08,31.92 
				168.11,32.03 169.91,32.09 173.12,32.19 174.37,32.11 174.62,32.11 177.14,32.17 179.06,32.33 179.15,32.33 183.97,32.44 
				184,32.44 186.3,32.46 186.93,32.49 189.17,32.57 189.35,32.41 189.6,32.19 190.67,31.71 191.33,31.71 191.85,31.6 192.01,31.44 
				192.6,31.19 193.7,30.92 194.29,30.87 194.42,30.73 194.38,30.43 194.95,29.65 195.13,29.54 196.02,29.48 196.68,29.16 
				196.86,28.75 196.79,28.29 197.29,27.94 198.11,27.64 198.14,27.29 198.25,27.18 198.14,26.99 198.16,26.8 199.55,25.88 
				199.71,25.83 201.05,25.26 201.53,25.15 202.12,24.66 205.15,22.17 			"/>
			<polygon class="st1" points="135.84,32.95 135.73,32.84 135.38,32.79 135.15,32.84 135.04,33.03 135.04,33.28 135.36,33.49 
				135.89,33.49 135.84,33.44 135.93,33.2 			"/>
		</g>
	</g>
	<linearGradient id="SVGID_1_" gradientUnits="userSpaceOnUse" x1="16.5238" y1="78.3121" x2="212.041" y2="78.3121">
		<stop  offset="0.2849" style="stop-color:#5EB3E4"/>
		<stop  offset="0.7765" style="stop-color:#FFC600"/>
	</linearGradient>
	<rect x="16.52" y="76.14" class="st2" width="195.52" height="4.34"/>
	<g>
		<path class="st0" d="M225.39,62.13c0,2.27-1.78,4.05-4.1,4.05c-2.3,0-4.13-1.78-4.13-4.05c0-2.22,1.83-4,4.13-4
			C223.61,58.13,225.39,59.91,225.39,62.13z M218.19,62.13c0,1.78,1.32,3.2,3.13,3.2c1.76,0,3.05-1.42,3.05-3.17
			c0-1.78-1.29-3.22-3.08-3.22C219.51,58.94,218.19,60.38,218.19,62.13z M220.65,64.23h-0.93v-4c0.37-0.07,0.88-0.12,1.54-0.12
			c0.76,0,1.1,0.12,1.39,0.29c0.22,0.17,0.39,0.49,0.39,0.88c0,0.44-0.34,0.78-0.83,0.93v0.05c0.39,0.15,0.61,0.44,0.73,0.98
			c0.12,0.61,0.2,0.85,0.29,1h-1c-0.12-0.15-0.2-0.51-0.32-0.98c-0.07-0.44-0.32-0.64-0.83-0.64h-0.44V64.23z M220.68,61.96h0.44
			c0.51,0,0.93-0.17,0.93-0.59c0-0.37-0.27-0.61-0.85-0.61c-0.24,0-0.41,0.02-0.51,0.05V61.96z"/>
	</g>
</g>
</svg>
